<svg xmlns="http://www.w3.org/2000/svg" id="SvgjsSvg122545" width="4096" height="3409.663554536814" version="1.1" xmlns:xlink="http://www.w3.org/1999/xlink" xmlns:svgjs="http://svgjs.com/svgjs"><defs id="SvgjsDefs122546"></defs><g id="SvgjsG122547" transform="translate(328, 328) scale(34.4)" opacity="1"><defs id="SvgjsDefs57274"></defs><g id="SvgjsG57275" transform="scale(0.4126433935792688)" opacity="1"><g id="SvgjsG57276" class="Mwe8Humv_" transform="translate(51.3716129032258, -9.073790322580644) scale(1.3959677419354837)" light-content="false" fill="#ffffff"><path d="M90.8 65l-9.5-3.7 12-8.4c-.2 4.2-1.1 8.3-2.5 12.1zM68.3 89.5l-4.1-9.3 14.4 2.6c-3.1 2.7-6.6 4.9-10.3 6.7zm-46.9-6.7l14.5-2.6-3.7 9.6c-3.9-1.9-7.5-4.2-10.8-7zM6.6 52.9l12.1 8.4-9.4 4.2c-1.4-3.9-2.4-8.1-2.7-12.6zM9.2 35l9.5 3.7-12 8.4c.2-4.2 1.1-8.3 2.5-12.1zm22.5-24.5l4.1 9.3-14.4-2.6c3.1-2.6 6.6-4.9 10.3-6.7zm46.9 6.7l-14.5 2.6 3.7-9.6c3.9 1.9 7.5 4.2 10.8 7zm14.8 29.9l-12.1-8.4 9.4-4.2c1.4 3.9 2.4 8.1 2.7 12.6zM50 68.1l-12.8-5.3L31.9 50l5.3-12.8L50 31.9l12.8 5.3L68.1 50l-5.3 12.8L50 68.1zM29.9 47l-5.5-7.5 9.2-1.4-3.7 8.9zm3.8 15l-9.2-1.5L30 53l3.7 9zm36.4-9l5.5 7.5-9.3 1.5 3.8-9zm-3.8-15l9.2 1.5-5.4 7.5-3.8-9zM77 36.6l-11.8-1.9L63.4 23 80 20l-3 16.6zM60.6 24.5l1.4 9.2-9-3.7 7.6-5.5zm-10.6 4l-9.6-7L50 7.6l9.6 13.8-9.6 7.1zm-3 1.4l-9 3.7 1.5-9.2 7.5 5.5zm-12.2 4.9L23 36.6 20 20l16.6 3-1.8 11.8zm-13.3 5.6l7 9.6-7 9.6L7.6 50l13.9-9.6zm1.5 23l11.8 1.9L36.6 77 20 80l3-16.6zm16.4 12.1L38 66.3l9 3.7-7.6 5.5zm10.6-4l9.6 7L50 92.4l-9.6-13.8 9.6-7.1zm3-1.4l9-3.7-1.5 9.2-7.5-5.5zm12.2-4.9L77 63.4 80 80l-16.6-3 1.8-11.8zm13.3-5.6l-7-9.6 7-9.6L92.4 50l-13.9 9.6zm1.7-23.8l2.6-14.4c2.7 3.1 4.9 6.5 6.7 10.3l-9.3 4.1zM61.3 18.6l-8.4-12c4.2.3 8.2 1.2 12 2.5l-3.6 9.5zm-22.7.1l-4.2-9.4c4-1.5 8.2-2.5 12.6-2.8l-8.4 12.2zm-21.4 2.7l2.6 14.5-9.6-3.7c1.9-3.9 4.2-7.5 7-10.8zm2.6 42.8l-2.6 14.4c-2.7-3.1-4.9-6.5-6.7-10.3l9.3-4.1zm18.9 17.2l8.4 12c-4.2-.3-8.2-1.2-12-2.5l3.6-9.5zm22.7-.1l4.2 9.4c-4 1.5-8.2 2.5-12.6 2.8l8.4-12.2zm21.4-2.7l-2.6-14.5 9.6 3.7c-1.9 3.9-4.2 7.5-7 10.8z"></path></g><g id="SvgjsG57277" class="text" transform="translate(119.55, 193.41919354838709) scale(1)" light-content="false" fill="#ffffff"><path d="M-95.85 0L-86.34 0L-97.89 -17.94C-95.23 -19.02 -93.19 -20.64 -91.75 -22.8C-90.33 -24.96 -89.62 -27.6 -89.64 -30.72C-89.64 -35.48 -91.11 -39.04 -94.06 -41.4C-97.01 -43.76 -101.45 -44.94 -107.37 -44.94C-111.43 -44.94 -115.49 -44.51 -119.55 -43.65L-119.55 0L-110.79 0L-110.79 -16.5C-109.19 -16.42 -107.9 -16.38 -106.92 -16.38L-106.17 -16.38ZM-110.79 -23.61L-110.79 -37.62C-109.25 -37.86 -107.73 -37.98 -106.23 -37.98C-103.49 -37.98 -101.44 -37.38 -100.09 -36.19C-98.74 -35.01 -98.07 -33.17 -98.07 -30.69C-98.07 -28.13 -98.8 -26.28 -100.24 -25.14C-101.69 -24 -103.93 -23.43 -106.95 -23.43C-108.13 -23.43 -109.41 -23.49 -110.79 -23.61Z M-74.95 -4.95C-71.79 -1.27 -67.4 0.57 -61.8 0.57C-56.2 0.57 -51.82 -1.27 -48.66 -4.95C-45.5 -8.63 -43.92 -14.38 -43.92 -22.2C-43.92 -30.02 -45.5 -35.77 -48.66 -39.45C-51.82 -43.13 -56.2 -44.97 -61.8 -44.97C-67.4 -44.97 -71.79 -43.13 -74.95 -39.45C-78.12 -35.77 -79.71 -30.02 -79.71 -22.2C-79.71 -14.38 -78.12 -8.63 -74.95 -4.95ZM-57.06 -8.29C-58.34 -7.33 -59.92 -6.84 -61.8 -6.84C-63.7 -6.84 -65.29 -7.33 -66.57 -8.31C-67.85 -9.29 -68.83 -10.92 -69.51 -13.21C-70.19 -15.5 -70.53 -18.57 -70.53 -22.41C-70.53 -26.11 -70.19 -29.07 -69.51 -31.3C-68.83 -33.54 -67.85 -35.13 -66.57 -36.1C-65.29 -37.08 -63.7 -37.56 -61.8 -37.56C-59.9 -37.56 -58.31 -37.07 -57.03 -36.09C-55.75 -35.11 -54.77 -33.48 -54.09 -31.18C-53.41 -28.9 -53.07 -25.83 -53.07 -21.99C-53.07 -18.29 -53.41 -15.33 -54.1 -13.09C-54.79 -10.87 -55.78 -9.27 -57.06 -8.29Z M-8.28 0L1.29 0L-13.05 -22.92L0.15 -44.4L-9.12 -44.4L-19.95 -26.76L-23.7 -26.76L-23.7 -44.4L-32.61 -44.4L-32.61 0L-23.7 0L-23.7 -18.63L-20.04 -18.63Z M32.1 0L40.89 0L28.8 -44.4L15.6 -44.4L3.51 0L12.18 0L15.27 -11.94L29.01 -11.94ZM17.22 -19.5L22.11 -38.52L27.03 -19.5Z M73.5 -44.4L63.57 -6.87L53.79 -44.4L44.64 -44.4L56.58 0L70.08 0L82.02 -44.4Z M114 0L122.79 0L110.7 -44.4L97.5 -44.4L85.41 0L94.08 0L97.17 -11.94L110.91 -11.94ZM99.12 -19.5L104.01 -38.52L108.93 -19.5Z"></path></g></g></g></svg>